<?xml version="1.0" encoding="iso-8859-1"?>
<!-- Generator: Adobe Illustrator 19.0.0, SVG Export Plug-In . SVG Version: 6.00 Build 0)  -->
<svg version="1.1" id="Capa_1" xmlns="http://www.w3.org/2000/svg" xmlns:xlink="http://www.w3.org/1999/xlink" x="0px" y="0px"
	 viewBox="0 0 512 512" style="enable-background:new 0 0 512 512;" xml:space="preserve">
<path style="fill:#E8D7C4;" d="M477.185,7.221v118.74H34.815V7.221c0-2.955,2.395-5.35,5.35-5.35h431.67
	C474.79,1.871,477.185,4.266,477.185,7.221z"/>
<rect x="34.816" y="75.807" style="fill:#DDC3A4;" width="442.368" height="19.373"/>
<path style="fill:#E0E0E3;" d="M34.815,127.092v368.495h143.153V280.184c0-43.096,34.936-78.032,78.032-78.032l0,0
	c43.096,0,78.032,34.936,78.032,78.032v215.403h143.153V127.092H34.815z"/>
<path style="fill:#E8D7C4;" d="M477.185,127.083v368.5H334.034V280.181c0-2.938-0.166-5.835-0.498-8.69
	c-1.994-18.086-10.174-34.292-22.364-46.481c-14.12-14.12-33.617-22.862-55.172-22.862c-40.159,0-73.226,30.348-77.536,69.344
	c-0.332,2.855-0.498,5.752-0.498,8.69v215.403H34.815V127.083H477.185z"/>
<path style="fill:#BCA48A;" d="M356.449,271.491v224.092h-22.415V280.181c0-2.938-0.166-5.835-0.498-8.69H356.449z"/>
<path style="fill:#DDC3A4;" d="M334.029,292.445h143.156v-20.952H333.538c0.332,2.85,0.491,5.751,0.491,8.687V292.445z"/>
<path style="fill:#BCA48A;" d="M178.464,271.491c-0.332,2.855-0.498,5.752-0.498,8.69v215.403h-23.142V271.491H178.464z"/>
<path style="fill:#DDC3A4;" d="M177.971,292.445V280.18c0-2.937,0.16-5.837,0.491-8.687H34.815v20.952H177.971z"/>
<g>
	<path style="fill:#A58E77;" d="M356.449,172.007v99.484h-22.903c-1.994-18.076-10.164-34.292-22.364-46.492
		c-14.13-14.12-33.628-22.852-55.182-22.852c-40.159,0-73.237,30.338-77.546,69.344h-22.903v-99.484L356.449,172.007
		L356.449,172.007z"/>
	<rect x="34.816" y="127.091" style="fill:#A58E77;" width="442.368" height="44.919"/>
	<path style="fill:#A58E77;" d="M80.798,103.207c-4.432,0-8.025-3.593-8.025-8.025V49.153c0-4.432,3.593-8.025,8.025-8.025
		c4.431,0,8.025,3.593,8.025,8.025v46.029C88.824,99.613,85.23,103.207,80.798,103.207z"/>
	<path style="fill:#A58E77;" d="M124.599,103.207c-4.432,0-8.025-3.593-8.025-8.025V49.153c0-4.432,3.593-8.025,8.025-8.025
		c4.431,0,8.025,3.593,8.025,8.025v46.029C132.624,99.613,129.031,103.207,124.599,103.207z"/>
	<path style="fill:#A58E77;" d="M168.399,103.207c-4.432,0-8.025-3.593-8.025-8.025V49.153c0-4.432,3.593-8.025,8.025-8.025
		s8.025,3.593,8.025,8.025v46.029C176.424,99.613,172.831,103.207,168.399,103.207z"/>
	<path style="fill:#A58E77;" d="M212.199,103.207c-4.432,0-8.025-3.593-8.025-8.025V49.153c0-4.432,3.593-8.025,8.025-8.025
		c4.432,0,8.025,3.593,8.025,8.025v46.029C220.225,99.613,216.631,103.207,212.199,103.207z"/>
	<path style="fill:#A58E77;" d="M256,103.207c-4.432,0-8.025-3.593-8.025-8.025V49.153c0-4.432,3.593-8.025,8.025-8.025
		c4.432,0,8.025,3.593,8.025,8.025v46.029C264.025,99.613,260.432,103.207,256,103.207z"/>
	<path style="fill:#A58E77;" d="M299.801,103.207c-4.432,0-8.025-3.593-8.025-8.025V49.153c0-4.432,3.592-8.025,8.025-8.025
		c4.432,0,8.025,3.593,8.025,8.025v46.029C307.826,99.613,304.234,103.207,299.801,103.207z"/>
	<path style="fill:#A58E77;" d="M343.601,103.207c-4.432,0-8.025-3.593-8.025-8.025V49.153c0-4.432,3.592-8.025,8.025-8.025
		s8.025,3.593,8.025,8.025v46.029C351.626,99.613,348.034,103.207,343.601,103.207z"/>
	<path style="fill:#A58E77;" d="M387.402,103.207c-4.432,0-8.025-3.593-8.025-8.025V49.153c0-4.432,3.592-8.025,8.025-8.025
		s8.025,3.593,8.025,8.025v46.029C395.427,99.613,391.835,103.207,387.402,103.207z"/>
	<path style="fill:#A58E77;" d="M431.202,103.207c-4.432,0-8.025-3.593-8.025-8.025V49.153c0-4.432,3.592-8.025,8.025-8.025
		s8.025,3.593,8.025,8.025v46.029C439.227,99.613,435.635,103.207,431.202,103.207z"/>
</g>
<path style="fill:#BCA48A;" d="M491.906,49.153H20.094c-2.955,0-5.35-2.395-5.35-5.35V32.635c0-2.955,2.395-5.35,5.35-5.35h471.811
	c2.955,0,5.35,2.395,5.35,5.35v11.167C497.255,46.757,494.861,49.153,491.906,49.153z"/>
<path style="fill:#E8D7C4;" d="M491.906,127.092H20.094c-2.955,0-5.35-2.395-5.35-5.35v-21.211c0-2.955,2.395-5.35,5.35-5.35
	h471.811c2.955,0,5.35,2.395,5.35,5.35v21.21C497.255,124.696,494.861,127.092,491.906,127.092z"/>
<g>
	<path style="fill:#DDC3A4;" d="M45.758,115.971c-4.432,0-8.025-3.593-8.025-8.025V95.181c0-4.432,3.593-8.025,8.025-8.025
		s8.025,3.593,8.025,8.025v12.764C53.783,112.378,50.19,115.971,45.758,115.971z"/>
	<path style="fill:#DDC3A4;" d="M80.798,115.971c-4.432,0-8.025-3.593-8.025-8.025V95.181c0-4.432,3.593-8.025,8.025-8.025
		c4.431,0,8.025,3.593,8.025,8.025v12.764C88.824,112.378,85.23,115.971,80.798,115.971z"/>
	<path style="fill:#DDC3A4;" d="M115.838,115.971c-4.432,0-8.025-3.593-8.025-8.025V95.181c0-4.432,3.593-8.025,8.025-8.025
		c4.432,0,8.025,3.593,8.025,8.025v12.764C123.863,112.378,120.271,115.971,115.838,115.971z"/>
	<path style="fill:#DDC3A4;" d="M150.879,115.971c-4.432,0-8.025-3.593-8.025-8.025V95.181c0-4.432,3.593-8.025,8.025-8.025
		c4.432,0,8.025,3.593,8.025,8.025v12.764C158.904,112.378,155.31,115.971,150.879,115.971z"/>
	<path style="fill:#DDC3A4;" d="M185.92,115.971c-4.432,0-8.025-3.593-8.025-8.025V95.181c0-4.432,3.593-8.025,8.025-8.025
		c4.432,0,8.025,3.593,8.025,8.025v12.764C193.945,112.378,190.351,115.971,185.92,115.971z"/>
	<path style="fill:#DDC3A4;" d="M220.959,115.971c-4.432,0-8.025-3.593-8.025-8.025V95.181c0-4.432,3.593-8.025,8.025-8.025
		s8.025,3.593,8.025,8.025v12.764C228.985,112.378,225.392,115.971,220.959,115.971z"/>
	<path style="fill:#DDC3A4;" d="M256,115.971c-4.432,0-8.025-3.593-8.025-8.025V95.181c0-4.432,3.593-8.025,8.025-8.025
		c4.432,0,8.025,3.593,8.025,8.025v12.764C264.025,112.378,260.432,115.971,256,115.971z"/>
	<path style="fill:#DDC3A4;" d="M291.041,115.971c-4.432,0-8.025-3.593-8.025-8.025V95.181c0-4.432,3.592-8.025,8.025-8.025
		s8.025,3.593,8.025,8.025v12.764C299.066,112.378,295.473,115.971,291.041,115.971z"/>
	<path style="fill:#DDC3A4;" d="M326.08,115.971c-4.432,0-8.025-3.593-8.025-8.025V95.181c0-4.432,3.592-8.025,8.025-8.025
		c4.432,0,8.025,3.593,8.025,8.025v12.764C334.106,112.378,330.514,115.971,326.08,115.971z"/>
	<path style="fill:#DDC3A4;" d="M361.122,115.971c-4.432,0-8.025-3.593-8.025-8.025V95.181c0-4.432,3.592-8.025,8.025-8.025
		s8.025,3.593,8.025,8.025v12.764C369.147,112.378,365.554,115.971,361.122,115.971z"/>
	<path style="fill:#DDC3A4;" d="M396.162,115.971c-4.432,0-8.025-3.593-8.025-8.025V95.181c0-4.432,3.592-8.025,8.025-8.025
		s8.025,3.593,8.025,8.025v12.764C404.186,112.378,400.594,115.971,396.162,115.971z"/>
	<path style="fill:#DDC3A4;" d="M431.202,115.971c-4.432,0-8.025-3.593-8.025-8.025V95.181c0-4.432,3.592-8.025,8.025-8.025
		s8.025,3.593,8.025,8.025v12.764C439.227,112.378,435.635,115.971,431.202,115.971z"/>
	<path style="fill:#DDC3A4;" d="M466.242,115.971c-4.432,0-8.025-3.593-8.025-8.025V95.181c0-4.432,3.592-8.025,8.025-8.025
		s8.025,3.593,8.025,8.025v12.764C474.268,112.378,470.675,115.971,466.242,115.971z"/>
</g>
<g>
	<path style="fill:#BCA48A;" d="M490.294,180.035H21.706c-4.432,0-8.025-3.593-8.025-8.025s3.593-8.025,8.025-8.025h468.589
		c4.432,0,8.025,3.593,8.025,8.025S494.727,180.035,490.294,180.035z"/>
	<path style="fill:#BCA48A;" d="M503.975,103.207H8.025C3.592,103.207,0,99.613,0,95.182c0-4.431,3.593-8.025,8.025-8.025h495.95
		c4.432,0,8.025,3.593,8.025,8.025C512,99.613,508.408,103.207,503.975,103.207z"/>
</g>
<g>
	<path style="fill:#A58E77;" d="M57.611,80.192h-1.039c-4.432,0-8.025-3.593-8.025-8.025c0-4.432,3.593-8.025,8.025-8.025h1.039
		c4.432,0,8.025,3.593,8.025,8.025C65.636,76.599,62.043,80.192,57.611,80.192z"/>
	<path style="fill:#A58E77;" d="M103.207,80.192h-1.039c-4.432,0-8.025-3.593-8.025-8.025c0-4.432,3.593-8.025,8.025-8.025h1.039
		c4.432,0,8.025,3.593,8.025,8.025C111.231,76.599,107.639,80.192,103.207,80.192z"/>
	<path style="fill:#A58E77;" d="M146.812,80.192h-1.039c-4.432,0-8.025-3.593-8.025-8.025c0-4.432,3.593-8.025,8.025-8.025h1.039
		c4.432,0,8.025,3.593,8.025,8.025C154.837,76.599,151.245,80.192,146.812,80.192z"/>
	<path style="fill:#A58E77;" d="M190.418,80.192h-1.039c-4.432,0-8.025-3.593-8.025-8.025c0-4.432,3.593-8.025,8.025-8.025h1.039
		c4.432,0,8.025,3.593,8.025,8.025C198.443,76.599,194.85,80.192,190.418,80.192z"/>
	<path style="fill:#A58E77;" d="M234.024,80.192h-1.039c-4.432,0-8.025-3.593-8.025-8.025c0-4.432,3.593-8.025,8.025-8.025h1.039
		c4.432,0,8.025,3.593,8.025,8.025C242.05,76.599,238.456,80.192,234.024,80.192z"/>
	<path style="fill:#A58E77;" d="M277.63,80.192h-1.039c-4.432,0-8.025-3.593-8.025-8.025c0-4.432,3.592-8.025,8.025-8.025h1.039
		c4.432,0,8.025,3.593,8.025,8.025C285.655,76.599,282.063,80.192,277.63,80.192z"/>
	<path style="fill:#A58E77;" d="M322.274,80.192h-1.039c-4.432,0-8.025-3.593-8.025-8.025c0-4.432,3.592-8.025,8.025-8.025h1.039
		c4.432,0,8.025,3.593,8.025,8.025C330.3,76.599,326.706,80.192,322.274,80.192z"/>
	<path style="fill:#A58E77;" d="M365.88,80.192h-1.039c-4.432,0-8.025-3.593-8.025-8.025c0-4.432,3.592-8.025,8.025-8.025h1.039
		c4.432,0,8.025,3.593,8.025,8.025C373.905,76.599,370.313,80.192,365.88,80.192z"/>
	<path style="fill:#A58E77;" d="M409.485,80.192h-1.038c-4.432,0-8.025-3.593-8.025-8.025c0-4.432,3.592-8.025,8.025-8.025h1.038
		c4.432,0,8.025,3.593,8.025,8.025C417.511,76.599,413.919,80.192,409.485,80.192z"/>
	<path style="fill:#A58E77;" d="M455.168,80.192h-1.039c-4.432,0-8.025-3.593-8.025-8.025c0-4.432,3.592-8.025,8.025-8.025h1.039
		c4.432,0,8.025,3.593,8.025,8.025C463.193,76.599,459.6,80.192,455.168,80.192z"/>
</g>
<g>
	<path style="fill:#BCA48A;" d="M447.136,239.668h-57.345c-2.955,0-5.35-2.395-5.35-5.35v-24.081c0-2.955,2.395-5.35,5.35-5.35
		h57.345c2.955,0,5.35,2.395,5.35,5.35v24.081C452.486,237.273,450.091,239.668,447.136,239.668z"/>
	<path style="fill:#BCA48A;" d="M122.209,239.668H64.864c-2.955,0-5.35-2.395-5.35-5.35v-24.081c0-2.955,2.395-5.35,5.35-5.35
		h57.345c2.955,0,5.35,2.395,5.35,5.35v24.081C127.559,237.273,125.164,239.668,122.209,239.668z"/>
	<path style="fill:#BCA48A;" d="M155.551,454.368H24.1c-4.432,0-8.025-3.593-8.025-8.025c0-4.432,3.593-8.025,8.025-8.025h131.451
		c4.432,0,8.025,3.593,8.025,8.025C163.576,450.775,159.983,454.368,155.551,454.368z"/>
	<path style="fill:#BCA48A;" d="M487.9,454.368H356.449c-4.432,0-8.025-3.593-8.025-8.025c0-4.432,3.592-8.025,8.025-8.025h131.452
		c4.432,0,8.025,3.593,8.025,8.025C495.925,450.775,492.333,454.368,487.9,454.368z"/>
</g>
<g>
	<path style="fill:#DDC3A4;" d="M418.464,344.481c-4.432,0-8.025-3.593-8.025-8.025V326.42c0-4.432,3.592-8.025,8.025-8.025
		c4.432,0,8.025,3.593,8.025,8.025v10.036C426.489,340.887,422.896,344.481,418.464,344.481z"/>
	<path style="fill:#DDC3A4;" d="M93.536,344.481c-4.432,0-8.025-3.593-8.025-8.025V326.42c0-4.432,3.593-8.025,8.025-8.025
		s8.025,3.593,8.025,8.025v10.036C101.562,340.887,97.969,344.481,93.536,344.481z"/>
</g>
<path style="fill:#BCA48A;" d="M433.449,347.382c-2.26-0.596-3.862-3.121-3.862-6.01l0,0c0-2.716-1.76-4.916-3.931-4.916h-7.193
	h-7.193c-2.171,0-3.931,2.202-3.931,4.916l0,0c0,2.889-1.602,5.415-3.862,6.01c-6.748,1.777-11.575,9.224-11.575,17.846v29.212
	c0,0.095,0,0.189,0.001,0.284c0.082,14.158,9.47,25.482,20.79,25.482h5.771h5.771c11.319,0,20.708-11.324,20.79-25.482
	c0.001-0.095,0.001-0.189,0.001-0.284v-29.212C445.025,356.606,440.197,349.16,433.449,347.382z"/>
<path style="fill:#DDC3A4;" d="M449.887,425.929v66.726h-62.842v-66.726c0-2.955,2.395-5.35,5.35-5.35h52.141
	C447.491,420.579,449.887,422.975,449.887,425.929z"/>
<g>
	<rect x="387.041" y="432.88" style="fill:#BCA48A;" width="62.84" height="16.051"/>
	<path style="fill:#BCA48A;" d="M108.522,347.382c-2.26-0.596-3.862-3.121-3.862-6.01l0,0c0-2.716-1.76-4.916-3.931-4.916h-7.193
		h-7.193c-2.171,0-3.931,2.202-3.931,4.916l0,0c0,2.889-1.602,5.415-3.862,6.01c-6.748,1.777-11.575,9.224-11.575,17.846v29.212
		c0,0.095,0,0.189,0.001,0.284c0.082,14.158,9.47,25.482,20.789,25.482h5.771h5.771c11.319,0,20.708-11.324,20.789-25.482
		c0.001-0.095,0.001-0.189,0.001-0.284v-29.212C120.098,356.606,115.27,349.16,108.522,347.382z"/>
</g>
<path style="fill:#DDC3A4;" d="M124.955,425.929v66.726H62.113v-66.726c0-2.955,2.395-5.35,5.35-5.35h52.141
	C122.56,420.579,124.955,422.975,124.955,425.929z"/>
<rect x="62.109" y="432.88" style="fill:#BCA48A;" width="62.84" height="16.051"/>
<g>
	<path style="fill:#E8D7C4;" d="M186.068,510.129H27.209c-2.955,0-5.35-2.395-5.35-5.35v-11.795c0-2.955,2.395-5.35,5.35-5.35
		h158.859c2.955,0,5.35,2.395,5.35,5.35v11.795C191.418,507.734,189.023,510.129,186.068,510.129z"/>
	<path style="fill:#E8D7C4;" d="M484.791,510.129H325.932c-2.955,0-5.35-2.395-5.35-5.35v-11.795c0-2.955,2.395-5.35,5.35-5.35
		h158.859c2.955,0,5.35,2.395,5.35,5.35v11.795C490.141,507.734,487.746,510.129,484.791,510.129z"/>
</g>
<path style="fill:#937B65;" d="M356.453,264.688v6.805h-22.909c-1.991-18.083-10.165-34.294-22.363-46.492
	c-14.124-14.124-33.63-22.856-55.181-22.856c-40.158,0-73.232,30.335-77.544,69.348h-22.909v-6.773
	c8.539-47.723,50.269-83.932,100.453-83.932c28.194,0,53.704,11.418,72.184,29.885C342.596,225.088,352.719,243.781,356.453,264.688
	z"/>
<g>
	<path style="fill:#BCA48A;" d="M487.9,279.521H337.648c-4.432,0-8.025-3.593-8.025-8.025c0-4.432,3.592-8.025,8.025-8.025H487.9
		c4.432,0,8.025,3.593,8.025,8.025C495.925,275.927,492.333,279.521,487.9,279.521z"/>
	<path style="fill:#BCA48A;" d="M174.353,279.521H24.1c-4.432,0-8.025-3.593-8.025-8.025c0-4.432,3.593-8.025,8.025-8.025h150.253
		c4.432,0,8.025,3.593,8.025,8.025C182.378,275.927,178.784,279.521,174.353,279.521z"/>
</g>
<g>
</g>
<g>
</g>
<g>
</g>
<g>
</g>
<g>
</g>
<g>
</g>
<g>
</g>
<g>
</g>
<g>
</g>
<g>
</g>
<g>
</g>
<g>
</g>
<g>
</g>
<g>
</g>
<g>
</g>
</svg>
