<svg height="511pt" viewBox="0 0 511.99941 511" width="511pt" xmlns="http://www.w3.org/2000/svg"><path d="m359.148438 318.859375c-26.867188.953125-50.671876-12.402344-64.414063-33.039063-3.015625-4.527343-9.699219-4.550781-12.710937-.023437-13.28125 19.957031-35.96875 33.113281-61.734376 33.113281-25.769531 0-48.457031-13.15625-61.734374-33.113281-3.015626-4.527344-9.695313-4.503906-12.710938.023437-13.742188 20.636719-37.546875 33.992188-64.414062 33.039063-4.589844-.160156-9.074219-.765625-13.421876-1.738281l-1.066406 1.554687 38.1875 161.574219c3.070313 12.992188 14.667969 22.171875 28.019532 22.171875h174.28125c13.351562 0 24.949218-9.179687 28.019531-22.171875l38.183593-161.574219-1.089843-1.546875c-4.339844.96875-8.8125 1.570313-13.394531 1.730469zm0 0" fill="#ff5d5d"/><path d="m364.929688 171.160156c-12.191407-67.660156-70.679688-119.226562-141.496094-120.714844-1.042969-.023437-2.09375-.039062-3.144532-.039062-1.050781 0-2.101562.011719-3.144531.039062-70.816406 1.488282-129.304687 53.054688-141.5 120.714844-37.367187 4.257813-66.304687 36.28125-65.632812 74.945313.679687 39.15625 32.28125 71.367187 71.417969 72.753906 26.867187.953125 50.671874-12.402344 64.414062-33.039063 3.015625-4.527343 9.699219-4.554687 12.710938-.023437 13.28125 19.957031 35.96875 33.109375 61.734374 33.109375 25.769532 0 48.457032-13.152344 61.734376-33.109375 3.015624-4.53125 9.695312-4.503906 12.710937.023437 13.742187 20.636719 37.550781 33.992188 64.414063 33.039063 39.140624-1.386719 70.738281-33.597656 71.417968-72.753906.671875-38.664063-28.265625-70.6875-65.636718-74.945313zm0 0" fill="#ffc66c"/><path d="m481.285156 32.960938c-9.277344-3.921876-19.441406-3.191407-28.238281 1.140624-3.023437-9.328124-9.585937-17.128906-18.859375-21.046874-17.902344-7.566407-39.128906 2.175781-47.40625 21.761718-11.597656 27.4375 28.28125 89.144532 28.28125 89.144532s72.046875-14.394532 83.644531-41.832032c8.28125-19.585937.480469-41.601562-17.421875-49.167968zm0 0" fill="#ff5d5d"/><path d="m485.175781 23.75c-8.445312-3.570312-17.847656-4.257812-26.859375-2.117188-4.742187-7.957031-11.789062-14.21875-20.234375-17.789062-22.953125-9.707031-50.097656 2.441406-60.511719 27.078125-6.023437 14.25-2.789062 34.816406 9.890626 62.875 5.886718 13.035156 12.378906 24.378906 16.109374 30.585937l-17.71875 41.585938c-4.054687-1.511719-8.234374-2.71875-12.507812-3.589844-15.859375-69.578125-77.707031-120.417968-149.65625-121.929687-2.261719-.054688-4.578125-.054688-6.753906 0-71.992188 1.511719-133.839844 52.351562-149.699219 121.929687-17.804687 3.628906-33.988281 12.957032-46.164063 26.730469-13.945312 15.773437-21.425781 36.078125-21.0585932 57.171875.3750002 21.507812 8.9492192 41.882812 24.1484372 57.371094 9.625 9.804687 21.257813 16.980468 33.949219 21.125l37.285156 157.773437c4.15625 17.585938 19.679688 29.871094 37.753907 29.871094h36.132812c.015625 0 .027344.003906.042969.003906s.027343-.003906.042969-.003906h101.839843c.015625 0 .03125.003906.042969.003906.015625 0 .03125-.003906.042969-.003906h36.132812c18.074219 0 33.601563-12.285156 37.757813-29.871094l37.285156-157.773437c12.691406-4.144532 24.324219-11.320313 33.945312-21.125 15.199219-15.484375 23.777344-35.859375 24.148438-57.371094.367188-21.09375-7.109375-41.398438-21.058594-57.171875-4.722656-5.339844-10.050781-10.003906-15.835937-13.933594l18.082031-42.4375c6.796875-1.5625 20.050781-4.894531 34.179688-9.996093 28.960937-10.460938 45.964843-22.46875 51.984374-36.71875 10.417969-24.636719.214844-52.570313-22.738281-62.273438zm-159.457031 454.199219c-2.015625 8.519531-9.535156 14.472656-18.289062 14.472656h-24.121094l22.210937-117.355469c1.027344-5.429687-2.539062-10.660156-7.964843-11.6875-5.429688-1.03125-10.660157 2.539063-11.6875 7.964844l-22.914063 121.078125h-32.667969v-79.214844c0-5.523437-4.476562-10-10-10-5.523437 0-10 4.476563-10 10v79.214844h-32.667968l-22.914063-121.078125c-1.027344-5.425781-6.253906-8.996094-11.683594-7.964844-5.429687 1.027344-8.996093 6.257813-7.96875 11.6875l22.210938 117.355469h-24.117188c-8.753906 0-16.277343-5.953125-18.292969-14.472656l-35.25-149.183594c.492188.027344.980469.070313 1.472657.089844 28.300781.988281 54.628906-11.90625 71.132812-34.671875 15.828125 21.808594 41.023438 34.722656 68.082031 34.722656 27.054688 0 52.25-12.914062 68.078126-34.722656 15.90625 21.941406 40.945312 34.726562 68.066406 34.722656 1.019531 0 2.042968-.015625 3.066406-.050781.496094-.019531.980469-.0625 1.472656-.089844zm94.847656-232.019531c-.589844 34.085937-27.726562 61.730468-61.773437 62.9375-22.441407.808593-43.285157-9.890626-55.734375-28.589844-3.28125-4.925782-8.777344-7.863282-14.699219-7.863282h-.003906c-5.910157 0-11.390625 2.933594-14.65625 7.84375-11.9375 17.941407-31.90625 28.652344-53.410157 28.652344-21.503906 0-41.46875-10.710937-53.40625-28.652344-3.269531-4.910156-8.746093-7.84375-14.65625-7.84375h-.003906c-5.925781 0-11.421875 2.9375-14.703125 7.863282-12.449219 18.699218-33.332031 29.390625-55.734375 28.589844-34.046875-1.207032-61.179687-28.851563-61.773437-62.9375-.578125-33.207032 23.828125-61.082032 56.769531-64.835938 4.386719-.5 7.925781-3.816406 8.710938-8.160156 11.5-63.816406 66.957031-111.125 131.90625-112.488282 1.921874-.050781 3.820312-.050781 5.828124 0 64.910157 1.363282 120.367188 48.671876 131.867188 112.488282.78125 4.34375 4.320312 7.660156 8.707031 8.160156 4.953125.566406 9.703125 1.683594 14.214844 3.273438l-23.703125 55.625c-2.164062 5.082031.199219 10.957031 5.28125 13.121093 1.277344.546875 2.605469.804688 3.914062.804688 3.886719 0 7.585938-2.28125 9.207032-6.085938l22.953125-53.875c15.558593 11.976563 25.265625 30.894531 24.898437 51.972657zm68.929688-167.695313c-6.054688 14.320313-42.292969 28.042969-69.675782 34.457031-14.480468-24.09375-29.894531-59.632812-23.828124-73.980468 4.757812-11.257813 15.117187-18.21875 25.507812-18.21875 2.972656 0 5.949219.570312 8.796875 1.773437 6.277344 2.652344 10.980469 7.953125 13.234375 14.917969.898438 2.761718 2.949219 5 5.621094 6.128906 2.675781 1.128906 5.710937 1.042969 8.3125-.242188 6.566406-3.234374 13.644531-3.554687 19.925781-.898437 12.792969 5.410156 18.226563 21.585937 12.105469 36.0625zm0 0"/><path d="m220.285156 363.207031c-2.628906 0-5.210937 1.0625-7.070312 2.929688-1.859375 1.863281-2.929688 4.429687-2.929688 7.070312 0 2.632813 1.070313 5.210938 2.929688 7.070313 1.871094 1.859375 4.441406 2.929687 7.070312 2.929687 2.632813 0 5.210938-1.066406 7.070313-2.929687 1.871093-1.867188 2.929687-4.4375 2.929687-7.070313 0-2.628906-1.058594-5.207031-2.929687-7.070312-1.859375-1.867188-4.429688-2.929688-7.070313-2.929688zm0 0"/><path d="m124.648438 169.761719c-5.4375-.964844-10.632813 2.660156-11.597657 8.09375-.007812.050781-.019531.117187-.03125.175781-.898437 5.398438 2.714844 10.527344 8.117188 11.488281.589843.105469 1.179687.15625 1.761719.15625 4.753906 0 8.972656-3.40625 9.832031-8.25.011719-.050781.023437-.117187.03125-.175781.898437-5.398438-2.710938-10.527344-8.113281-11.488281zm0 0"/><path d="m217.75 88.445312c-37.011719 1.480469-69.332031 19.121094-88.683594 48.398438-3.042968 4.609375-1.777344 10.8125 2.832032 13.855469 1.695312 1.121093 3.609374 1.660156 5.503906 1.660156 3.246094 0 6.429687-1.578125 8.351562-4.488281 15.757813-23.84375 42.292969-38.21875 72.796875-39.441406 5.519531-.21875 9.8125-4.875 9.59375-10.390626-.222656-5.519531-4.886719-9.808593-10.394531-9.59375zm0 0"/></svg>