<svg height="512" viewBox="0 0 512 512" width="512" xmlns="http://www.w3.org/2000/svg"><g id="filled_outline" data-name="filled outline"><path d="m377.792 440.022a688 688 0 0 1 -105.792-366.575v-9.447h-32v9.447a688 688 0 0 1 -105.792 366.575l-30.208 47.978h72a80 80 0 0 1 160 0h72zm-153.792-96.022 24-72h16l24 72z" fill="#f6c869"/><g fill="#f1b355"><path d="m216 376-24 64h.109a79.782 79.782 0 0 1 127.782 0h.109l-24-64z"/><path d="m346.185 384c-5.339-10.553-10.445-21.208-15.224-32h-149.922c-4.779 10.792-9.885 21.447-15.224 32z"/><path d="m294.6 248h-77.2q-4.225 16.111-9.229 32h37.166l2.663-8h16l2.667 8h37.166q-5-15.886-9.233-32z"/></g><rect fill="#83b45a" height="48" rx="16" width="32" x="40" y="408"/><rect fill="#83b45a" height="48" rx="16" width="32" x="408" y="408"/><path d="m488 488v-16a16 16 0 0 0 -16-16 16 16 0 0 0 -16 16v16z" fill="#aac56a"/><path d="m240 64h32v16h-32z" fill="#f1b355"/><path d="m200 240h112v32h-112z" fill="#8c6847"/><path d="m152 344h208v32h-208z" fill="#8c6847"/><path d="m299 384-3-8h-80l-3 8z" fill="#f09c57"/><path d="m232 40h48v32h-48z" fill="#8c6847"/><path d="m472 448a24.027 24.027 0 0 0 -24 24v8h-16v-17.474a23.96 23.96 0 0 0 16-22.526v-16a24 24 0 0 0 -48 0v16a23.959 23.959 0 0 0 16 22.525v17.475h-3.584l-27.854-44.238c-10.506-16.691-20.351-34.062-29.439-51.762h4.877a8 8 0 0 0 8-8v-32a8 8 0 0 0 -8-8h-27.094c-7.69-18.364-14.593-37.147-20.626-56.057a7.97 7.97 0 0 0 7.72-7.943v-32a8 8 0 0 0 -8-8h-13.172a680.785 680.785 0 0 1 -18.728-152.02 7.989 7.989 0 0 0 7.9-7.98v-32a8 8 0 0 0 -8-8h-16v-16h-16v16h-16a8 8 0 0 0 -8 8v32a7.989 7.989 0 0 0 7.9 7.98 680.785 680.785 0 0 1 -18.728 152.02h-13.172a8 8 0 0 0 -8 8v32a7.97 7.97 0 0 0 7.72 7.943c-6.033 18.91-12.936 37.693-20.626 56.057h-27.094a8 8 0 0 0 -8 8v32a8 8 0 0 0 8 8h4.877c-9.088 17.7-18.933 35.071-29.44 51.762l-27.853 44.238h-35.584v-17.474a23.96 23.96 0 0 0 16-22.526v-16a24 24 0 0 0 -48 0v16a23.959 23.959 0 0 0 16 22.525v17.475h-32v16h480v-24a24.027 24.027 0 0 0 -24-24zm-56-24a8 8 0 0 1 16 0v16a8 8 0 0 1 -16 0zm-368 0a8 8 0 0 1 16 0v16a8 8 0 0 1 -16 0zm205.767-144h4.466l18.667 56h-41.8zm40 56-18.667-56h20.353c5.863 18.852 12.594 37.617 20.086 56zm-53.767-288h32v16h-32zm7.969 32h16.062a696.7 696.7 0 0 0 18.285 152h-52.632a696.7 696.7 0 0 0 18.285-152zm-39.969 168h96v16h-96zm8.547 32h20.353l-18.667 56h-21.772c7.492-18.383 14.223-37.148 20.086-56zm-56.547 72h192v16h-192zm130.455 32 10.736 28.631a87.157 87.157 0 0 0 -90.382 0l10.736-28.631zm-149.478 60.285c12.2-19.383 23.589-39.64 33.886-60.285h29.592l-19.716 52.574a87.376 87.376 0 0 0 -16.334 43.426h-49.913zm43.464 35.715a72.005 72.005 0 0 1 143.118 0zm159.159 0a87.376 87.376 0 0 0 -16.334-43.426l-19.721-52.574h29.592c10.3 20.645 21.683 40.9 33.886 60.285l22.485 35.715zm120.4 0v-8a8 8 0 0 1 16 0v8z"/></g></svg>