<svg height="512" viewBox="0 0 512 512" width="512" xmlns="http://www.w3.org/2000/svg"><path d="m377.792 440.022a688 688 0 0 1 -105.792-366.575v-9.447h-32v9.447a688 688 0 0 1 -105.792 366.575l-30.208 47.978h72a80 80 0 0 1 160 0h72zm-153.792-96.022 24-72h16l24 72z" fill="#f6c869"/><path d="m216 376-24 64h.109a79.782 79.782 0 0 1 127.782 0h.109l-24-64z" fill="#f1b355"/><path d="m248 16h16v32h-16z" fill="#f6c869"/><path d="m346.185 384c-5.339-10.553-10.445-21.208-15.224-32h-149.922c-4.779 10.792-9.885 21.447-15.224 32z" fill="#f1b355"/><path d="m294.6 248h-77.2q-4.225 16.111-9.229 32h37.166l2.663-8h16l2.667 8h37.166q-5-15.886-9.233-32z" fill="#f1b355"/><path d="m48 448h16v40h-16z" fill="#8c6847"/><rect fill="#83b45a" height="48" rx="16" width="32" x="40" y="408"/><path d="m416 448h16v40h-16z" fill="#8c6847"/><rect fill="#83b45a" height="48" rx="16" width="32" x="408" y="408"/><path d="m488 488v-16a16 16 0 0 0 -16-16 16 16 0 0 0 -16 16v16z" fill="#aac56a"/><path d="m16 480h480v16h-480z" fill="#6f5438"/><path d="m240 64h32v16h-32z" fill="#f1b355"/><path d="m200 240h112v32h-112z" fill="#8c6847"/><path d="m152 344h208v32h-208z" fill="#8c6847"/><path d="m299 384-3-8h-80l-3 8z" fill="#f09c57"/><path d="m232 40h48v32h-48z" fill="#8c6847"/></svg>