<svg height="512pt" viewBox="0 0 512 512.00238" width="512pt" xmlns="http://www.w3.org/2000/svg"><path d="m319.371094 389.820312-292.480469 111.324219c-10.023437 3.8125-19.847656-6.011719-16.03125-16.035156l111.324219-292.476563c2.785156-7.324218 12.199218-9.339843 17.742187-3.796874l183.242188 183.242187c5.539062 5.542969 3.527343 14.953125-3.796875 17.742187zm0 0" fill="#4dbaf6"/><path d="m296.273438 345.183594c10.332031-3.417969 20.046874-9.21875 28.269531-17.4375 28.140625-28.140625 28.140625-73.765625 0-101.902344s-73.761719-28.140625-101.902344 0c-8.21875 8.222656-14.019531 17.9375-17.4375 28.273438zm0 0" fill="#ffc36e"/><path d="m502.03125 82.027344c0 39.792968-32.261719 72.054687-72.054688 72.054687-39.792968 0-72.054687-32.261719-72.054687-72.054687 0-39.796875 32.261719-72.054688 72.054687-72.054688 39.792969 0 72.054688 32.257813 72.054688 72.054688zm0 0" fill="#ffc36e"/><path d="m105.269531 237.070312-41.628906 109.363282c10.511719 8.398437 23.824219 13.429687 38.320313 13.429687 33.933593 0 61.441406-27.507812 61.441406-61.441406 0-32.824219-25.738282-59.632813-58.132813-61.351563zm0 0" fill="#fff"/><path d="m131.734375 409.742188c-27.605469 0-49.988281 22.382812-49.988281 49.988281 0 6.765625 1.351562 13.210937 3.785156 19.09375l93.402344-35.550781c-6.804688-19.519532-25.359375-33.53125-47.199219-33.53125zm0 0" fill="#fff"/><path d="m248.710938 406.699219c-2.632813 0-5.214844 1.070312-7.074219 2.933593-1.863281 1.859376-2.933594 4.441407-2.933594 7.074219 0 2.644531 1.070313 5.214844 2.933594 7.085938 1.859375 1.863281 4.441406 2.933593 7.074219 2.933593 2.632812 0 5.214843-1.070312 7.074218-2.933593 1.863282-1.871094 2.933594-4.441407 2.933594-7.085938 0-2.632812-1.070312-5.214843-2.933594-7.074219-1.859375-1.863281-4.433594-2.933593-7.074218-2.933593zm0 0"/><path d="m150.464844 140.738281c1.121094.402344 2.265625.59375 3.394531.59375 4.097656 0 7.945313-2.539062 9.414063-6.617187l35.53125-98.589844c1.875-5.199219-.824219-10.933594-6.023438-12.808594-5.203125-1.875-10.933594.824219-12.808594 6.023438l-35.53125 98.585937c-1.875 5.203125.824219 10.9375 6.023438 12.8125zm0 0"/><path d="m482.960938 322.320312-98.585938 35.527344c-5.203125 1.875-7.898438 7.613282-6.023438 12.8125 1.46875 4.078125 5.316407 6.617188 9.414063 6.617188 1.128906 0 2.273437-.191406 3.394531-.597656l98.585938-35.527344c5.199218-1.875 7.898437-7.609375 6.023437-12.8125-1.875-5.199219-7.605469-7.898438-12.808593-6.019532zm0 0"/><path d="m424.339844 116.777344c5.527344 0 10.007812-4.480469 10.007812-10.007813 0-5.527343-4.480468-10.007812-10.007812-10.007812-2.898438 0-5.253906-2.355469-5.253906-5.25 0-5.527344-4.480469-10.011719-10.007813-10.011719s-10.007813 4.484375-10.007813 10.011719c0 13.929687 11.335938 25.265625 25.269532 25.265625zm0 0"/><path d="m457.472656 100.875c2.632813 0 5.203125-1.070312 7.074219-2.933594 1.863281-1.863281 2.933594-4.445312 2.933594-7.074218 0-2.644532-1.070313-5.21875-2.933594-7.078126-1.859375-1.863281-4.441406-2.933593-7.074219-2.933593-2.644531 0-5.214844 1.070312-7.078125 2.933593-1.871093 1.859376-2.929687 4.433594-2.929687 7.078126 0 2.628906 1.058594 5.210937 2.929687 7.074218 1.863281 1.859375 4.445313 2.933594 7.078125 2.933594zm0 0"/><path d="m423.480469 66.882812c2.632812 0 5.214843-1.058593 7.078125-2.933593 1.859375-1.859375 2.933594-4.441407 2.933594-7.074219s-1.070313-5.214844-2.933594-7.074219c-1.863282-1.863281-4.445313-2.933593-7.078125-2.933593-2.628907 0-5.214844 1.070312-7.074219 2.933593-1.859375 1.859375-2.933594 4.441407-2.933594 7.074219s1.070313 5.214844 2.933594 7.074219c1.859375 1.875 4.445312 2.933593 7.074219 2.933593zm0 0"/><path d="m262.359375 238.933594c-5.527344 0-10.007813 4.480468-10.007813 10.007812 0 4.523438 3 8.34375 7.117188 9.585938 1.242188 4.117187 5.0625 7.117187 9.585938 7.117187 5.527343 0 10.007812-4.480469 10.007812-10.007812 0-9.210938-7.492188-16.703125-16.703125-16.703125zm0 0"/><path d="m297.09375 273.667969c-5.527344 0-10.007812 4.480469-10.007812 10.007812 0 4.523438 3 8.34375 7.117187 9.585938 1.242187 4.117187 5.0625 7.117187 9.585937 7.117187 5.527344 0 10.007813-4.480468 10.007813-10.007812 0-9.210938-7.492187-16.703125-16.703125-16.703125zm0 0"/><path d="m331.621094 218.765625c-32-31.996094-84.058594-31.996094-116.054688 0-5.410156 5.40625-9.949218 11.417969-13.601562 17.957031l-54.964844-54.964844c-5.011719-5.011718-12.140625-7.117187-19.074219-5.632812-6.929687 1.480469-12.574219 6.320312-15.097656 12.949219l-111.320313 292.476562c-3.1875 8.371094-1.234374 17.507813 5.101563 23.84375 4.324219 4.324219 9.953125 6.609375 15.757813 6.609375 2.695312 0 5.429687-.492187 8.085937-1.503906l152.042969-57.871094c.003906-.003906 30.910156-11.765625 30.910156-11.765625 5.164062-1.96875 7.757812-7.75 5.792969-12.914062-1.96875-5.167969-7.75-7.757813-12.914063-5.792969l-22.128906 8.421875c-10.449219-18.78125-30.414062-30.839844-52.421875-30.839844-33.082031 0-59.996094 26.914063-59.996094 59.992188 0 4.441406.5 8.8125 1.453125 13.082031l-49.859375 18.976562c-.96875.371094-1.832031.1875-2.566406-.546874-.734375-.734376-.921875-1.601563-.550781-2.570313l48.378906-127.105469c10.234375 5.402344 21.714844 8.308594 33.367188 8.308594 39.398437 0 71.453124-32.054688 71.453124-71.453125 0-33.4375-23.011718-61.714844-54.375-69.386719l12.5-32.839844c.050782-.132812.152344-.40625.578126-.496093.425781-.09375.632812.117187.730468.214843l183.242188 183.242188c.101562.101562.308594.308594.21875.730469-.09375.425781-.367188.53125-.5.582031l-33.460938 12.734375c-5.164062 1.96875-7.761718 7.75-5.792968 12.914063 1.964843 5.167968 7.746093 7.757812 12.914062 5.792968l33.464844-12.734375c6.621094-2.523437 11.464844-8.167969 12.949218-15.097656 1.480469-6.933594-.625-14.0625-5.636718-19.078125l-16.578125-16.578125c6.539062-3.652344 12.546875-8.191406 17.953125-13.597656 31.996094-32 31.996094-84.0625 0-116.058594zm-239.441406 246.820313c-.28125-1.929688-.425782-3.882813-.425782-5.855469 0-22.042969 17.9375-39.976563 39.980469-39.976563 13.664063 0 26.15625 6.972656 33.429687 18.050782l-70.367187 26.785156zm19.664062-217.652344c23.800781 4.613281 41.550781 25.5625 41.550781 50.488281 0 28.359375-23.074219 51.433594-51.433593 51.433594-9.367188 0-18.292969-2.457031-26.1875-7.160157l4.015624-10.546874zm186.914062 85.582031-81.886718-81.886719c3.074218-6.96875 7.378906-13.242187 12.847656-18.707031 24.191406-24.191406 63.554688-24.195313 87.746094 0 24.191406 24.191406 24.191406 63.554687 0 87.746094-5.464844 5.46875-11.738282 9.773437-18.707032 12.847656zm0 0"/><path d="m337.117188 184.894531c2.5625 0 5.121093-.976562 7.074218-2.929687l35.28125-35.28125c14.785156 11.5625 32.636719 17.367187 50.503906 17.367187 21.015626 0 42.027344-8 58.027344-23.996093 31.996094-32 31.996094-84.0625 0-116.058594s-84.054687-31.996094-116.054687 0c-29.601563 29.601562-31.792969 76.363281-6.628907 108.535156l-35.28125 35.277344c-3.910156 3.910156-3.910156 10.246094 0 14.15625 1.953126 1.953125 4.515626 2.929687 7.078126 2.929687zm48.988281-146.742187c24.191406-24.191406 63.554687-24.191406 87.746093 0 24.1875 24.191406 24.1875 63.554687 0 87.746094-12.097656 12.097656-27.984374 18.148437-43.875 18.144531-15.886718 0-31.777343-6.046875-43.871093-18.144531-24.191407-24.191407-24.191407-63.554688 0-87.746094zm0 0"/><path d="m474.597656 228.851562c2.558594 0 5.121094-.976562 7.074219-2.929687l9.035156-9.03125c3.90625-3.910156 3.90625-10.246094 0-14.15625-3.90625-3.90625-10.246093-3.90625-14.15625 0l-9.03125 9.03125c-3.910156 3.910156-3.910156 10.246094 0 14.15625 1.953125 1.953125 4.515625 2.929687 7.078125 2.929687zm0 0"/><path d="m424.230469 269.210938c1.953125 1.953124 4.515625 2.933593 7.078125 2.933593 2.558594 0 5.121094-.980469 7.074218-2.933593l9.035157-9.03125c3.90625-3.910157 3.90625-10.246094 0-14.15625-3.910157-3.90625-10.246094-3.90625-14.15625 0l-9.03125 9.03125c-3.910157 3.910156-3.910157 10.25 0 14.15625zm0 0"/><path d="m467.519531 260.179688 9.03125 9.03125c1.957031 1.953124 4.515625 2.933593 7.078125 2.933593s5.121094-.980469 7.078125-2.933593c3.90625-3.90625 3.90625-10.246094 0-14.15625l-9.035156-9.03125c-3.910156-3.90625-10.242187-3.90625-14.15625 0-3.90625 3.910156-3.90625 10.246093.003906 14.15625zm0 0"/><path d="m433.265625 225.921875c1.953125 1.953125 4.515625 2.929687 7.074219 2.929687 2.5625 0 5.125-.976562 7.078125-2.929687 3.910156-3.910156 3.910156-10.246094 0-14.15625l-9.035157-9.03125c-3.90625-3.910156-10.246093-3.90625-14.152343 0-3.910157 3.910156-3.910157 10.246094 0 14.15625zm0 0"/><path d="m251.757812 118.550781c1.761719 1.25 3.789063 1.855469 5.796876 1.855469 3.128906 0 6.207031-1.464844 8.160156-4.207031l45.476562-63.875c3.207032-4.503907 2.15625-10.753907-2.347656-13.957031-4.503906-3.207032-10.75-2.15625-13.957031 2.347656l-45.476563 63.875c-3.207031 4.503906-2.15625 10.753906 2.347656 13.960937zm0 0"/><path d="m235.066406 153.597656c2.632813 0 5.214844-1.070312 7.078125-2.929687 1.871094-1.875 2.933594-4.445313 2.933594-7.078125 0-2.644532-1.0625-5.214844-2.933594-7.074219-1.863281-1.875-4.445312-2.933594-7.078125-2.933594-2.628906 0-5.210937 1.058594-7.074218 2.933594-1.859376 1.859375-2.933594 4.433594-2.933594 7.074219 0 2.632812 1.070312 5.214844 2.933594 7.078125 1.863281 1.859375 4.445312 2.929687 7.074218 2.929687zm0 0"/><path d="m388.863281 300.046875c-1.863281 1.859375-2.933593 4.441406-2.933593 7.074219 0 2.632812 1.070312 5.214844 2.933593 7.078125 1.863281 1.859375 4.445313 2.933593 7.074219 2.933593 2.632812 0 5.214844-1.070312 7.078125-2.933593 1.859375-1.863281 2.933594-4.445313 2.933594-7.078125 0-2.632813-1.074219-5.214844-2.933594-7.074219-1.863281-1.871094-4.445313-2.933594-7.078125-2.933594-2.628906 0-5.210938 1.0625-7.074219 2.933594zm0 0"/><path d="m388.671875 216.882812c1.863281-1.859374 2.933594-4.433593 2.933594-7.066406 0-2.640625-1.070313-5.214844-2.933594-7.085937-1.859375-1.859375-4.441406-2.929688-7.074219-2.929688-2.632812 0-5.214844 1.066407-7.078125 2.929688-1.871093 1.871093-2.929687 4.445312-2.929687 7.085937 0 2.632813 1.058594 5.207032 2.929687 7.066406 1.863281 1.871094 4.445313 2.933594 7.078125 2.933594 2.632813 0 5.214844-1.0625 7.074219-2.933594zm0 0"/></svg>