<svg height="511pt" viewBox="0 0 511.99917 511" width="511pt" xmlns="http://www.w3.org/2000/svg"><path d="m418.734375 379.621094c-3.402344 64.382812-58.359375 119.339844-122.746094 122.746094 3.40625-64.386719 58.363281-119.34375 122.746094-122.746094zm0 0" fill="#bced89"/><path d="m178.378906 502.367188c-64.382812-3.40625-119.339844-58.363282-122.746094-122.746094 64.386719 3.402344 119.34375 58.359375 122.746094 122.746094zm0 0" fill="#91dc82"/><path d="m197.523438 447.132812c-11.105469 16.148438-18.078126 35.148438-19.144532 55.234376 20.582032-1.089844 40.027344-8.382813 56.433594-19.972657-14.511719-9.253906-27.226562-21.300781-37.289062-35.261719zm0 0" fill="#bced89"/><path d="m256.125 283.171875c2.550781-48.179687 43.671875-89.300781 91.847656-91.851563-2.546875 48.179688-43.667968 89.300782-91.847656 91.851563zm0 0" fill="#bced89"/><path d="m318.964844 95.640625c14.472656-8.902344 19.320312-27.761719 10.769531-42.570313-8.550781-14.8125-27.304687-20.042968-42.253906-11.957031-.472657-16.988281-14.382813-30.617187-31.484375-30.617187-17.097656 0-31.007813 13.628906-31.480469 30.617187-14.945313-8.085937-33.703125-2.855469-42.253906 11.957031-8.550781 14.808594-3.703125 33.667969 10.773437 42.570313-14.476562 8.902344-19.324218 27.761719-10.773437 42.570313 8.550781 14.8125 27.308593 20.042968 42.253906 11.957031.472656 16.988281 14.382813 30.617187 31.484375 30.617187s31.007812-13.628906 31.480469-30.617187c14.949219 8.085937 33.703125 2.855469 42.253906-11.957031 8.550781-14.808594 3.703125-33.667969-10.769531-42.570313zm0 0" fill="#ffc36e"/><path d="m281.867188 95.480469c0 14.289062-11.582032 25.871093-25.867188 25.871093-14.289062 0-25.867188-11.582031-25.867188-25.871093 0-14.285157 11.578126-25.867188 25.867188-25.867188 14.285156 0 25.867188 11.582031 25.867188 25.867188zm0 0" fill="#fff"/><path d="m486.9375 181.566406c14.476562-8.902344 19.324219-27.761718 10.773438-42.570312-8.550782-14.8125-27.308594-20.042969-42.257813-11.957032-.46875-16.988281-14.378906-30.617187-31.480469-30.617187-17.101562 0-31.011718 13.628906-31.484375 30.617187-14.945312-8.085937-33.703125-2.855468-42.253906 11.957032-8.550781 14.808594-3.703125 33.667968 10.773437 42.570312-14.476562 8.902344-19.324218 27.761719-10.773437 42.570313 8.550781 14.8125 27.308594 20.042969 42.253906 11.957031.472657 16.988281 14.382813 30.617188 31.484375 30.617188 17.101563 0 31.007813-13.628907 31.480469-30.617188 14.949219 8.085938 33.707031 2.855469 42.257813-11.957031 8.550781-14.808594 3.703124-33.667969-10.773438-42.570313zm0 0" fill="#fe8f8d"/><path d="m449.839844 181.40625c0 14.289062-11.582032 25.867188-25.867188 25.867188s-25.867187-11.578126-25.867187-25.867188c0-14.285156 11.582031-25.867188 25.867187-25.867188s25.867188 11.582032 25.867188 25.867188zm0 0" fill="#fff"/><path d="m14.289062 224.136719c8.550782 14.8125 27.308594 20.042969 42.253907 11.957031.472656 16.988281 14.382812 30.617188 31.484375 30.617188 17.101562 0 31.007812-13.628907 31.480468-30.617188 14.949219 8.085938 33.707032 2.855469 42.257813-11.957031 8.550781-14.808594 3.703125-33.667969-10.773437-42.570313 14.476562-8.902344 19.324218-27.761718 10.773437-42.570312-8.550781-14.8125-27.308594-20.042969-42.257813-11.957032-.46875-16.988281-14.378906-30.617187-31.480468-30.617187-17.101563 0-31.011719 13.628906-31.484375 30.617187-14.945313-8.085937-33.703125-2.855468-42.253907 11.957032-8.550781 14.808594-3.703124 33.667968 10.773438 42.570312-14.476562 8.902344-19.324219 27.761719-10.773438 42.570313zm0 0" fill="#ff5d5d"/><path d="m113.894531 181.40625c0 14.289062-11.582031 25.867188-25.867187 25.867188-14.289063 0-25.871094-11.578126-25.871094-25.867188 0-14.285156 11.582031-25.867188 25.871094-25.867188 14.285156 0 25.867187 11.582032 25.867187 25.867188zm0 0" fill="#fff"/><path d="m281.027344 307.308594c11.1875 21.277344-6.882813 46.148437-30.574219 42.085937-16.78125 17.214844-46.019531 7.714844-49.476563-16.074219-21.558593-10.640624-21.558593-41.382812 0-52.023437 3.457032-23.789063 32.695313-33.289063 49.476563-16.074219 23.691406-4.0625 41.761719 20.804688 30.574219 42.085938zm0 0" fill="#ffce87"/><path d="m295.988281 502.367188c-64.386719-3.40625-119.339843-58.363282-122.746093-122.746094 64.386718 3.402344 119.339843 58.359375 122.746093 122.746094zm0 0" fill="#91dc82"/><path d="m256 131.347656c19.773438 0 35.863281-16.089844 35.863281-35.867187 0-19.773438-16.089843-35.863281-35.863281-35.863281-19.777344 0-35.867188 16.089843-35.867188 35.863281 0 19.777343 16.089844 35.867187 35.867188 35.867187zm0-51.734375c8.75 0 15.871094 7.117188 15.871094 15.867188 0 8.753906-7.121094 15.871093-15.871094 15.871093-8.753906 0-15.871094-7.117187-15.871094-15.871093 0-8.75 7.117188-15.867188 15.871094-15.867188zm0 0"/><path d="m423.972656 145.539062c-19.773437 0-35.863281 16.089844-35.863281 35.867188s16.089844 35.867188 35.863281 35.867188c19.777344 0 35.867188-16.089844 35.867188-35.867188s-16.089844-35.867188-35.867188-35.867188zm0 51.738282c-8.75 0-15.871094-7.121094-15.871094-15.871094s7.121094-15.871094 15.871094-15.871094c8.753906 0 15.871094 7.121094 15.871094 15.871094s-7.117188 15.871094-15.871094 15.871094zm0 0"/><path d="m506.367188 133.996094c-9.046876-15.675782-26.5-23.242188-43.304688-20.132813-5.714844-16.105469-20.992188-27.4375-39.089844-27.4375s-33.375 11.332031-39.089844 27.4375c-16.015624-2.964843-32.617187 3.777344-41.972656 17.988281 3.027344-12.796874-.226562-26.234374-8.734375-36.210937 11.089844-13.003906 13.265625-31.898437 4.21875-47.570313-9.050781-15.671874-26.496093-23.246093-43.308593-20.132812-5.714844-16.105469-20.988282-27.4375-39.085938-27.4375s-33.375 11.332031-39.089844 27.4375c-16.808594-3.101562-34.257812 4.460938-43.304687 20.132812-9.050781 15.671876-6.875 34.566407 4.21875 47.570313-8.507813 9.972656-11.761719 23.414063-8.738281 36.207031-9.355469-14.207031-25.953126-20.945312-41.972657-17.984375-5.714843-16.105469-20.988281-27.4375-39.085937-27.4375s-33.375 11.332031-39.089844 27.4375c-16.808594-3.113281-34.257812 4.460938-43.304688 20.132813-9.046874 15.671875-6.875 34.566406 4.21875 47.570312-11.09375 13.003906-13.265624 31.898438-4.21875 47.570313 9.046876 15.671875 26.5 23.238281 43.304688 20.132812 5.714844 16.105469 20.992188 27.4375 39.089844 27.4375 12.214844 0 23.140625-5.167969 30.714844-13.480469 27.957031 29.292969 45.347656 67.875 48.691406 108.273438-.445313.316406-.871094.660156-1.261719 1.050781-2.003906 2.003907-3.0625 4.765625-2.914063 7.597657.519532 9.828124 2.15625 19.535156 4.816407 28.980468-.015625.226563-.035157.457032-.035157.6875v27.871094c-5.875-9.519531-12.933593-18.46875-21.09375-26.628906-24.933593-24.933594-57.175781-39.644532-90.785156-41.421875-2.835937-.144531-5.59375.910156-7.597656 2.914062-2.003906 2.003907-3.0625 4.765625-2.914062 7.597657 1.78125 33.609374 16.488281 65.851562 41.421874 90.785156 24.679688 24.675781 56.519532 39.332031 89.757813 41.351562.394531.046875.800781.078125 1.207031.078125.039063 0 .078125-.003906.117188-.003906.074218 0 .152344.003906.226562.003906.175782 0 .355469-.003906.53125-.011719 19.652344-1.039062 38.917969-7.285156 56.113282-18.105468 18.609374 10.71875 39.25 16.984375 60.4375 18.105468.175781.007813.347656.011719.523437.011719h.003906c.175781 0 .351563-.003906.527344-.011719 19.414063-1.027343 38.238281-6.296874 55.953125-15.660156 4.878906-2.582031 6.746094-8.628906 4.164062-13.511718-2.582031-4.882813-8.628906-6.746094-13.511718-4.167969-11.507813 6.085937-23.539063 10.144531-35.898438 12.121093 8.085938-50.269531 50.007813-92.191406 100.277344-100.273437-1.96875 12.300781-6 24.277344-12.039062 35.738281-2.570313 4.886719-.695313 10.933594 4.1875 13.507813 4.886718 2.570312 10.933593.699219 13.503906-4.1875 9.304687-17.660157 14.542968-36.425781 15.5625-55.769531.152344-2.832032-.90625-5.59375-2.914063-7.597657-2.003906-2.003906-4.742187-3.0625-7.597656-2.914062-33.609375 1.777343-65.847656 16.488281-90.78125 41.421875-7.148437 7.144531-13.449219 14.894531-18.851563 23.105468 8.210938-65.472656 35.9375-127.050781 80.152344-176.929687 7.304688 11.75 20.3125 19.472656 35.246094 19.472656 18.097656 0 33.375-11.332031 39.089844-27.4375 16.800781 3.105469 34.257812-4.460937 43.304687-20.132812s6.875-34.566407-4.21875-47.570313c11.09375-13.003906 13.269531-31.898437 4.222657-47.570312zm-137.097657 115.144531c-37.207031 43.65625-62.785156 95.339844-75.011719 150.597656-6.171874-15.21875-14.699218-29.476562-25.390624-42.316406 7.082031-2.609375 13.386718-7.28125 18.042968-13.691406 7.78125-10.707031 9.5625-24.269531 5.046875-36.421875 2.785157-7.492188 3.167969-15.519532 1.234375-23.082032 16.285156-7.316406 31.035156-18.847656 42.199219-33.160156 3.960937-5.082031 7.417969-10.417968 10.371094-15.949218 6.167969 7.386718 14.503906 12.207031 23.507812 14.023437zm-33.070312-45.34375c-6.070313 27.378906-26.214844 51.664063-52.800781 62.914063-3.417969-3.554688-7.414063-6.375-11.78125-8.375 10.820312-27.828126 36.125-49.34375 64.679687-55.410157-.035156.289063-.066406.578125-.097656.871094zm-84.058594 71.28125c.453125-.078125.90625-.140625 1.355469-.1875.800781.207031 1.636718.328125 2.503906.328125.738281 0 1.460938-.085938 2.15625-.238281 4.976562.695312 9.449219 3.351562 12.574219 7.65625 4.351562 5.984375 4.890625 13.46875 1.445312 20.019531-1.527343 2.910156-1.527343 6.390625 0 9.304688 3.445313 6.546874 2.902344 14.03125-1.445312 20.015624-4.347657 5.988282-11.296875 8.8125-18.589844 7.5625-3.246094-.558593-6.554687.519532-8.847656 2.875-5.167969 5.296876-12.453125 7.09375-19.488281 4.8125-7.035157-2.289062-11.871094-8.023437-12.9375-15.347656-.472657-3.257812-2.515626-6.070312-5.46875-7.527344-6.632813-3.273437-10.597657-9.644531-10.597657-17.046874 0-7.398438 3.964844-13.769532 10.597657-17.042969 2.953124-1.457031 4.996093-4.273438 5.46875-7.527344 1.066406-7.324219 5.902343-13.058594 12.9375-15.347656 2.011718-.652344 4.039062-.972657 6.035156-.972657 4.992187 0 9.761718 2 13.449218 5.785157 2.296876 2.359375 5.605469 3.433593 8.851563 2.878906zm84.921875-129.722656c-3.019531 12.75.207031 26.144531 8.652344 36.109375-31.886719 2.242187-61.210938 19.628906-79.71875 45.503906v-37.378906c13.578125-3.308594 24.464844-13.210938 29.089844-26.246094 16.015624 2.964844 32.617187-3.78125 41.976562-17.988281zm-138.792969-58.230469c-9.980469-6.140625-13.210937-18.902344-7.351562-29.058594 5.863281-10.152344 18.53125-13.734375 28.84375-8.160156 3.054687 1.652344 6.746093 1.601562 9.753906-.136719 3.007813-1.734375 4.898437-4.90625 4.992187-8.378906.328126-11.71875 9.765626-20.894531 21.492188-20.894531 11.722656 0 21.160156 9.175781 21.488281 20.894531.097657 3.472656 1.988281 6.644531 4.992188 8.378906 3.007812 1.738281 6.699219 1.789063 9.753906.136719 10.3125-5.574219 22.980469-1.992188 28.84375 8.160156 5.863281 10.15625 2.632813 22.917969-7.351563 29.058594-2.957031 1.820312-4.761718 5.042969-4.761718 8.515625s1.804687 6.699219 4.761718 8.515625c9.984376 6.144531 13.214844 18.90625 7.351563 29.058594s-18.527344 13.738281-28.839844 8.160156c-3.054687-1.648438-6.746093-1.601562-9.757812.136719-3.003907 1.738281-4.894531 4.910156-4.992188 8.382812-.328125 11.714844-9.765625 20.894531-21.488281 20.894531-11.726562 0-21.164062-9.179687-21.492188-20.894531-.09375-3.472656-1.984374-6.644531-4.992187-8.382812-1.546875-.890625-3.273437-1.339844-5-1.339844-1.636719 0-3.269531.402344-4.757813 1.203125-10.308593 5.582031-22.976562 1.992188-28.839843-8.160156-5.859375-10.152344-2.632813-22.917969 7.351562-29.054688 2.960938-1.820312 4.761719-5.046875 4.761719-8.519531s-1.800781-6.695313-4.761719-8.515625zm-27.847656 142.011719c9.046875-15.671875 6.871094-34.566407-4.222656-47.570313 8.511719-9.972656 11.765625-23.414062 8.738281-36.207031 9.355469 14.207031 25.957031 20.941406 41.972656 17.984375 4.625 13.035156 15.515625 22.941406 29.089844 26.246094v60.429687c-8.738281-4.050781-18.800781-4.753906-28.375-1.644531-12.585938 4.089844-22 14.011719-25.488281 26.5-10.800781 7.175781-17.328125 19.195312-17.328125 32.433594 0 13.238281 6.527344 25.257812 17.328125 32.433594 3.488281 12.488281 12.902343 22.410156 25.488281 26.5 4.011719 1.304687 8.109375 1.9375 12.160156 1.9375 6.269532 0 12.425782-1.53125 17.976563-4.449219 18.722656 19.910156 31.039062 44.382812 35.890625 70.8125-5.460938-8.351563-11.84375-16.230469-19.101563-23.488281-21.523437-21.523438-48.496093-35.417969-77.089843-39.964844-1.785157-23.785156-7.785157-46.804688-17.898438-68.515625-9.085938-19.503907-21.117188-37.15625-35.839844-52.632813 14.621094.308594 28.835938-7.183594 36.699219-20.804687zm-82.394531 27.578125c-11.726563 0-21.164063-9.179688-21.488282-20.898438-.097656-3.472656-1.988281-6.644531-4.996093-8.378906-1.546875-.894531-3.269531-1.339844-5-1.339844-1.632813 0-3.269531.398438-4.753907 1.203125-10.3125 5.578125-22.976562 1.992188-28.839843-8.160156-5.863281-10.15625-2.632813-22.917969 7.351562-29.058594 2.957031-1.820312 4.757813-5.042969 4.757813-8.515625s-1.800782-6.695312-4.757813-8.515625c-9.984375-6.140625-13.214843-18.90625-7.351562-29.058593 5.859375-10.152344 18.527343-13.734376 28.839843-8.160157 3.054688 1.652344 6.746094 1.601563 9.753907-.136719 3.007812-1.738281 4.898437-4.910156 4.996093-8.378906.324219-11.71875 9.765626-20.898437 21.488282-20.898437s21.160156 9.179687 21.488281 20.898437c.097656 3.46875 1.988281 6.640625 4.996094 8.378906 3.007812 1.734376 6.699219 1.789063 9.753906.136719 10.308594-5.578125 22.976563-1.988281 28.839844 8.160157 5.863281 10.152343 2.632812 22.917968-7.351563 29.058593-2.957031 1.816407-4.761718 5.042969-4.761718 8.515625s1.804687 6.695313 4.761718 8.515625c9.984375 6.140625 13.214844 18.902344 7.351563 29.058594-5.863281 10.152344-18.527344 13.738281-28.839844 8.160156-3.054687-1.652343-6.746094-1.601562-9.753906.136719-3.007813 1.734375-4.898438 4.90625-4.996094 8.378906-.074219 2.65625-.636719 5.167969-1.566406 7.484375-.136719.296875-.261719.59375-.367188.898438-3.382812 7.425781-10.832031 12.515625-19.554687 12.515625zm-21.152344 134.144531c50.261719 8.085937 92.179688 50.003906 100.265625 100.265625-50.261719-8.085938-92.179687-50.003906-100.265625-100.265625zm122.902344 100.109375c1.675781-9.050781 4.6875-17.921875 8.953125-26.339844.117187.128906.238281.25.355469.378906 1.128906 1.261719 2.277343 2.507813 3.457031 3.738282.398437.417968.804687.824218 1.210937 1.238281.308594.3125.613282.632813.925782.945313.667968.667968 1.34375 1.324218 2.023437 1.976562.511719.496094 1.03125.984375 1.550781 1.46875 1.046875.980469 2.105469 1.949219 3.179688 2.894531.335937.296875.671875.589844 1.007812.882813 1.40625 1.21875 2.828125 2.410156 4.269532 3.566406-8.59375 4.425781-17.660157 7.542969-26.933594 9.25zm50.542968-16.90625c-.046874-.03125-.085937-.066406-.132812-.09375-13.320312-8.5-25.273438-19.800781-34.554688-32.679688-.03125-.042968-.066406-.078124-.097656-.121093-10.671875-14.847657-18.109375-32.019531-21.054687-50.308594 50.265625 8.089844 92.179687 50.003906 100.269531 100.269531-15.917969-2.5625-30.996094-8.527344-44.429688-17.066406zm241.378907-283.980469c9.984375 6.140625 13.214843 18.902344 7.351562 29.054688-5.859375 10.15625-18.527343 13.738281-28.839843 8.164062-3.054688-1.652343-6.746094-1.601562-9.753907.136719-3.007812 1.734375-4.898437 4.90625-4.996093 8.378906-.324219 11.71875-9.765626 20.894532-21.488282 20.894532s-21.164062-9.179688-21.488281-20.894532c-.097656-3.472656-1.988281-6.644531-4.996094-8.378906-1.542969-.894531-3.269531-1.339844-4.996093-1.339844-1.636719 0-3.273438.398438-4.757813 1.203125-10.3125 5.578125-22.976563 1.988281-28.839844-8.164062-2.277343-3.941407-3.167969-8.277344-2.835937-12.46875.28125-1.382813.53125-2.773438.753906-4.167969 1.417969-4.984375 4.636719-9.46875 9.433594-12.421875 2.957031-1.816406 4.761718-5.039063 4.761718-8.515625 0-3.472656-1.804687-6.695312-4.761718-8.515625-9.984375-6.140625-13.214844-18.902344-7.351563-29.054687 5.863281-10.152344 18.527344-13.738282 28.839844-8.164063 3.054687 1.652344 6.746094 1.601563 9.753906-.136719 3.007813-1.734375 4.898438-4.90625 4.996094-8.378906.324219-11.71875 9.765625-20.894531 21.488281-20.894531s21.164063 9.179687 21.488282 20.894531c.097656 3.472656 1.988281 6.644531 4.996093 8.378906 3.007813 1.738282 6.699219 1.789063 9.753907.136719 10.3125-5.574219 22.976562-1.988281 28.839843 8.164063 5.863281 10.152343 2.632813 22.914062-7.351562 29.054687-2.957031 1.820313-4.761719 5.042969-4.761719 8.515625 0 3.476562 1.804688 6.699219 4.761719 8.519531zm0 0"/><path d="m123.890625 181.40625c0-19.777344-16.089844-35.867188-35.863281-35.867188-19.777344 0-35.867188 16.089844-35.867188 35.867188s16.089844 35.867188 35.867188 35.867188c19.773437 0 35.863281-16.089844 35.863281-35.867188zm-35.863281 15.871094c-8.753906 0-15.871094-7.121094-15.871094-15.871094s7.117188-15.871094 15.871094-15.871094c8.75 0 15.871094 7.121094 15.871094 15.871094s-7.121094 15.871094-15.871094 15.871094zm0 0"/><path d="m373.175781 456.777344c-3.910156 3.851562-3.984375 10.140625-.152343 14.085937 1.960937 2.015625 4.5625 3.03125 7.171874 3.03125 2.511719 0 5.019532-.941406 6.964844-2.828125.105469-.101562.203125-.203125.304688-.304687 3.847656-3.960938 3.757812-10.289063-.203125-14.136719-3.945313-3.832031-10.234375-3.757812-14.085938.152344zm0 0"/><path d="m235.433594 297.308594c-2.628906 0-5.207032 1.070312-7.066406 2.929687-1.859376 1.859375-2.929688 4.441407-2.929688 7.070313s1.070312 5.207031 2.929688 7.066406c1.867187 1.859375 4.4375 2.929688 7.066406 2.929688s5.210937-1.070313 7.070312-2.929688c1.855469-1.859375 2.929688-4.4375 2.929688-7.066406s-1.070313-5.210938-2.929688-7.070313-4.429687-2.929687-7.070312-2.929687zm0 0"/><path d="m56.382812 54.15625c2.628907 0 5.207032-1.070312 7.066407-2.929688 1.871093-1.859374 2.929687-4.4375 2.929687-7.070312 0-2.636719-1.058594-5.207031-2.929687-7.066406-1.859375-1.871094-4.429688-2.929688-7.066407-2.929688-2.628906 0-5.210937 1.058594-7.070312 2.929688-1.859375 1.859375-2.925781 4.4375-2.925781 7.066406 0 2.632812 1.066406 5.210938 2.925781 7.070312 1.863281 1.859376 4.441406 2.929688 7.070312 2.929688zm0 0"/><path d="m398.101562 54.15625c2.640626 0 5.207032-1.070312 7.066407-2.929688 1.871093-1.859374 2.929687-4.4375 2.929687-7.070312 0-2.636719-1.058594-5.207031-2.929687-7.066406-1.859375-1.871094-4.425781-2.929688-7.066407-2.929688-2.628906 0-5.210937 1.058594-7.070312 2.929688-1.855469 1.859375-2.925781 4.429687-2.925781 7.066406 0 2.632812 1.066406 5.210938 2.925781 7.070312 1.859375 1.859376 4.441406 2.929688 7.070312 2.929688zm0 0"/></svg>