<svg height="512pt" viewBox="0 0 512 512" width="512pt" xmlns="http://www.w3.org/2000/svg"><path d="m448 256c0 106.039062-85.960938 192-192 192s-192-85.960938-192-192 85.960938-192 192-192 192 85.960938 192 192zm0 0" fill="#ffc36e"/><path d="m255.847656 457.992188c-6.640625 0-13.296875-.328126-19.941406-.988282-46.238281-4.597656-89.828125-25.253906-122.742188-58.167968-78.757812-78.761719-78.757812-206.910157 0-285.671876 78.761719-78.757812 206.910157-78.757812 285.671876 0 32.945312 32.949219 53.609374 76.585938 58.179687 122.871094 4.507813 45.648438-6.714844 91.839844-31.609375 130.0625-3.011719 4.628906-9.207031 5.9375-13.835938 2.921875-4.628906-3.015625-5.9375-9.207031-2.921874-13.835937 46.601562-71.558594 36.527343-167.394532-23.953126-227.875-70.964843-70.960938-186.425781-70.960938-257.386718 0-70.960938 70.960937-70.960938 186.425781 0 257.386718 60.394531 60.398438 156.144531 70.527344 227.667968 24.089844 4.628907-3.007812 10.824219-1.691406 13.832032 2.941406 3.007812 4.628907 1.6875 10.824219-2.941406 13.832032-32.644532 21.195312-71.085938 32.433594-110.019532 32.433594zm0 0"/><path d="m391.46875 402.058594c-2.566406 0-5.132812-.980469-7.085938-2.945313-3.898437-3.914062-3.882812-10.246093.03125-14.140625l.296876-.296875c3.914062-3.894531 10.246093-3.878906 14.140624.035157 3.898438 3.917968 3.882813 10.25-.035156 14.144531l-.292968.292969c-1.953126 1.941406-4.503907 2.910156-7.054688 2.910156zm0 0"/><path d="m209.78125 229.105469c-5.519531 0-10-4.476563-10-10 0-3.457031-2.808594-6.265625-6.261719-6.265625s-6.265625 2.808594-6.265625 6.265625c0 5.523437-4.476562 10-10 10-5.523437 0-10-4.476563-10-10 0-14.484375 11.78125-26.265625 26.265625-26.265625 14.480469 0 26.261719 11.78125 26.261719 26.265625 0 5.523437-4.476562 10-10 10zm0 0"/><path d="m340.164062 229.105469c-5.523437 0-10-4.476563-10-10 0-3.457031-2.808593-6.265625-6.261718-6.265625-3.457032 0-6.265625 2.808594-6.265625 6.265625 0 5.523437-4.476563 10-10 10-5.523438 0-10-4.476563-10-10 0-14.484375 11.78125-26.265625 26.265625-26.265625 14.480468 0 26.261718 11.78125 26.261718 26.265625 0 5.523437-4.476562 10-10 10zm0 0"/><path d="m258.710938 357.359375c-31.480469 0-57.085938-25.605469-57.085938-57.085937 0-5.519532 4.476562-10 10-10s10 4.480468 10 10c0 20.453124 16.636719 37.085937 37.085938 37.085937 20.449218 0 37.085937-16.636719 37.085937-37.085937 0-5.519532 4.476563-10 10-10s10 4.480468 10 10c0 31.480468-25.609375 57.085937-57.085937 57.085937zm0 0"/><path d="m462 33.8125c-5.523438 0-10-4.476562-10-10v-13.8125c0-5.523438 4.476562-10 10-10s10 4.476562 10 10v13.8125c0 5.523438-4.476562 10-10 10zm0 0"/><path d="m462 100c-5.523438 0-10-4.476562-10-10v-13.8125c0-5.523438 4.476562-10 10-10s10 4.476562 10 10v13.8125c0 5.523438-4.476562 10-10 10zm0 0"/><path d="m502 60h-13.8125c-5.523438 0-10-4.476562-10-10s4.476562-10 10-10h13.8125c5.523438 0 10 4.476562 10 10s-4.476562 10-10 10zm0 0"/><path d="m435.8125 60h-13.8125c-5.523438 0-10-4.476562-10-10s4.476562-10 10-10h13.8125c5.523438 0 10 4.476562 10 10s-4.476562 10-10 10zm0 0"/><path d="m50 445.8125c-5.523438 0-10-4.476562-10-10v-13.8125c0-5.523438 4.476562-10 10-10s10 4.476562 10 10v13.8125c0 5.523438-4.476562 10-10 10zm0 0"/><path d="m50 512c-5.523438 0-10-4.476562-10-10v-13.8125c0-5.523438 4.476562-10 10-10s10 4.476562 10 10v13.8125c0 5.523438-4.476562 10-10 10zm0 0"/><path d="m90 472h-13.8125c-5.523438 0-10-4.476562-10-10s4.476562-10 10-10h13.8125c5.523438 0 10 4.476562 10 10s-4.476562 10-10 10zm0 0"/><path d="m23.8125 472h-13.8125c-5.523438 0-10-4.476562-10-10s4.476562-10 10-10h13.8125c5.523438 0 10 4.476562 10 10s-4.476562 10-10 10zm0 0"/></svg>