<svg id="Layer_1" enable-background="new 0 0 512 512" height="512" viewBox="0 0 512 512" width="512" xmlns="http://www.w3.org/2000/svg"><g><g clip-rule="evenodd" fill-rule="evenodd"><path d="m212.944 138.628 43.056 62.626 43.056-62.627-43.056-62.627z" fill="#a0c8ff"/><path d="m256 201.254-43.056-62.627-43.056 62.628 43.056 62.626z" fill="#bfdbff"/><path d="m212.944 263.881-43.056-62.626-43.056 62.627 43.056 62.626z" fill="#a0c8ff"/><path d="m169.888 326.508-43.056-62.626-43.056 62.627 43.056 62.626z" fill="#bfdbff"/><path d="m126.832 389.135-43.057-62.626-47.775 69.491h86.112z" fill="#a0c8ff"/><path d="m169.888 326.508-43.056 62.627 4.719 6.865h76.673l4.72-6.865z" fill="#a0c8ff"/><path d="m169.888 326.508 43.056 62.627 43.056-62.627-43.056-62.627z" fill="#bfdbff"/><path d="m212.944 263.881 43.056 62.627 43.056-62.627-43.056-62.627z" fill="#a0c8ff"/><path d="m299.056 263.881-43.056 62.627 43.056 62.627 43.056-62.627z" fill="#bfdbff"/><path d="m299.056 389.135-43.056-62.627-43.056 62.627 4.719 6.865h76.674z" fill="#a0c8ff"/><path d="m342.112 326.508-43.056 62.627 4.72 6.865h76.673l4.72-6.865z" fill="#a0c8ff"/><path d="m342.112 326.508 43.057 62.627 43.056-62.626-43.057-62.627z" fill="#bfdbff"/><path d="m428.224 326.509-43.056 62.626 4.72 6.865h86.112z" fill="#a0c8ff"/><path d="m342.112 326.508 43.057-62.626-43.057-62.627-43.056 62.626z" fill="#a0c8ff"/><path d="m299.056 263.881 43.057-62.626-43.057-62.627-43.056 62.626z" fill="#bfdbff"/><path d="m294.337 396h-76.674-9.439-76.673-9.439-86.112-26v40h492v-40h-26-86.112-9.439-76.673z" fill="#8690af"/></g><g><path d="m502 386h-20.739l-217.02-315.665c-1.866-2.714-4.948-4.335-8.241-4.335s-6.375 1.621-8.24 4.335l-217.021 315.665h-20.739c-5.523 0-10 4.478-10 10v40c0 5.522 4.477 10 10 10h200.997c5.523 0 10-4.478 10-10s-4.477-10-10-10h-190.997v-20h15.908.003 456.089v20h-191.003c-5.522 0-10 4.478-10 10s4.478 10 10 10h201.003c5.522 0 10-4.478 10-10v-40c0-5.522-4.477-10-10-10zm-172.023-184.746-30.921 44.976-30.921-44.976 30.921-44.976zm43.057 62.628-30.921 44.976-30.921-44.976 30.921-44.976zm43.056 62.626-30.921 44.976-30.921-44.976 30.921-44.976zm-86.112 0-30.921 44.976-30.921-44.976 30.921-44.976zm-43.057-62.627-30.921 44.976-30.921-44.976 30.921-44.976zm-147.954 0 30.921-44.976 30.921 44.976-30.921 44.976zm18.786 62.627-30.921 44.976-30.922-44.976 30.921-44.976zm55.191-44.976 30.921 44.976-30.921 44.976-30.921-44.976zm0-35.302-30.921-44.976 30.921-44.976 30.921 44.976zm-129.168 97.929 28.765 41.841h-57.531zm86.112 0 28.766 41.841h-57.532zm86.112 0 28.766 41.841h-57.532zm86.113 0 28.766 41.841h-57.532zm86.112 0 28.766 41.841h-57.532zm-141.304-205.531-30.921 44.976-30.921-44.976 30.921-44.976z"/><path d="m256 426h-.007c-5.523 0-9.996 4.478-9.996 10s4.48 10 10.003 10 10-4.478 10-10-4.477-10-10-10z"/></g></g></svg>