<svg id="filled_outline" height="512" viewBox="0 0 512 512" width="512" xmlns="http://www.w3.org/2000/svg" data-name="filled outline"><path d="m176 200h160v32h-160z" fill="#cfb6a4"/><path d="m304 344v-56a48 48 0 0 0 -48-48 48 48 0 0 0 -48 48v56z" fill="#e9d5c6"/><g fill="#f07f2f"><path d="m88 392h80v48h-80z"/><path d="m88 240h80v48h-80z"/><path d="m344 392h80v48h-80z"/><path d="m344 240h80v48h-80z"/><path d="m208 392h96v56h-96z"/></g><path d="m464 392-8-24 8-24h-416l8 24-8 24z" fill="#f0dfd3"/><path d="m168 392h40v96h-40z" fill="#cfb6a4"/><path d="m168 240h40v104h-40z" fill="#cfb6a4"/><path d="m48 392h40v96h-40z" fill="#cfb6a4"/><path d="m168 488h-80v-48l40-48 40 48z" fill="#e9d5c6"/><path d="m304 488h-96v-48l48-48 48 48z" fill="#e9d5c6"/><path d="m48 240h40v104h-40z" fill="#cfb6a4"/><path d="m168 288-40-48-40 48v56h80z" fill="#e9d5c6"/><circle cx="256" cy="288" fill="#cfb6a4" r="16"/><path d="m48 104h128v136h-128z" fill="#e9d5c6"/><path d="m160 104v-16l16-24h-128l16 24v16z" fill="#d6bfae"/><path d="m48 24h128v40h-128z" fill="#e9d5c6"/><path d="m304 392h40v96h-40z" fill="#cfb6a4" transform="matrix(-1 0 0 -1 648 880)"/><path d="m304 240h40v104h-40z" fill="#cfb6a4" transform="matrix(-1 0 0 -1 648 584)"/><path d="m424 392h40v96h-40z" fill="#cfb6a4" transform="matrix(-1 0 0 -1 888 880)"/><path d="m424 488h-80v-48l40-48 40 48z" fill="#e9d5c6"/><path d="m424 240h40v104h-40z" fill="#cfb6a4" transform="matrix(-1 0 0 -1 888 584)"/><path d="m424 288-40-48-40 48v56h80z" fill="#e9d5c6"/><path d="m336 104h128v136h-128z" fill="#e9d5c6" transform="matrix(-1 0 0 -1 800 344)"/><path d="m352 104v-16l-16-24h128l-16 24v16z" fill="#d6bfae"/><path d="m336 24h128v40h-128z" fill="#e9d5c6"/><path d="m216 200 40-56 40 56z" fill="#f07f2f"/><path d="m256 312a24 24 0 1 0 -24-24 24.02718 24.02718 0 0 0 24 24zm0-32a8 8 0 1 1 -8 8 8.00917 8.00917 0 0 1 8-8z"/><path d="m48 96a8.00008 8.00008 0 0 0 -8 8v128h-16v16h16v96a7.97749 7.97749 0 0 0 .41455 2.529l-.00391.00122 7.15674 21.46978-7.15674 21.46973.00391.00122a7.97749 7.97749 0 0 0 -.41455 2.52905v96a8.00008 8.00008 0 0 0 8 8h416a8.00008 8.00008 0 0 0 8-8v-96a7.97749 7.97749 0 0 0 -.41455-2.529l.00391-.00122-7.15674-21.46978 7.15674-21.46973-.00391-.00122a7.97749 7.97749 0 0 0 .41455-2.52905v-96h16v-16h-16v-128a8.00008 8.00008 0 0 0 -8-8h-8v-5.57812l14.65625-21.98438a7.978 7.978 0 0 0 1.32715-4.4375h.0166v-40a8.00008 8.00008 0 0 0 -8-8h-128a8.00008 8.00008 0 0 0 -8 8v40h.0166a7.978 7.978 0 0 0 1.32715 4.4375l14.65625 21.98438v5.57812h-8a8.00008 8.00008 0 0 0 -8 8v88h-27.88281l-36.11719-50.564v-37.436h16v-16h-16v-16h-16v16h-16v16h16v37.436l-36.11719 50.564h-27.88281v-88a8.00008 8.00008 0 0 0 -8-8h-8v-5.57812l14.65625-21.98438a7.978 7.978 0 0 0 1.32715-4.4375h.0166v-40a8.00008 8.00008 0 0 0 -8-8h-128a8.00008 8.00008 0 0 0 -8 8v40h.0166a7.978 7.978 0 0 0 1.32715 4.4375l14.65625 21.98438v5.57812zm8 16h112v120h-32v-88a8 8 0 0 0 -16 0v88h-16v-88a8 8 0 0 0 -16 0v88h-32zm176 96v24h-16v-24zm104 40v88h-24v-88zm30.91968 0-14.91968 17.90381v-17.90381zm81.491 122.53027 4.48995 13.46973h-393.80126l4.49-13.46973a8.003 8.003 0 0 0 0-5.06054l-4.49-13.46973h393.80126l-4.49 13.46973a8.003 8.003 0 0 0 .00001 5.06054zm-72.41068 69.46973v40h-24v-37.10376l32-38.40015 32 38.40015v37.10376h-24v-40zm-9.08032-40-14.91968 17.90381v-17.90381zm34.16064 0h14.91968v17.90381zm-137.08032 40v40h-16v-40h-16v40h-16v-36.686l40-40.00048 40 40.00048v36.686h-16v-40zm-27.314-40-20.686 20.686v-20.686zm38.62792 0h20.68608v20.686zm-155.31392 40v40h-24v-37.10376l32-38.40015 32 38.40015v37.10376h-24v-40zm-24-40h14.91968l-14.91968 17.90381zm49.08032 0h14.91968v17.90381zm-89.08032-152h24v88h-24zm54.91968 0-14.91968 17.90381v-17.90381zm25.08032 88v-40h-16v40h-24v-45.10376l32-38.40015 32 38.40015v45.10376zm24-70.09619-14.91968-17.90381h14.91968zm96-17.90381a40.04552 40.04552 0 0 1 40 40v48h-80v-48a40.04552 40.04552 0 0 1 40-40zm96 42.89624 32-38.40015 32 38.40015v45.10376h-24v-40h-16v40h-24zm104 45.10376h-24v-88h24zm-40-70.09619-14.91968-17.90381h14.91968zm-120-57.90381v24h-16v-24zm-32 24h-16v-24h16zm-64 104h-24v-88h24zm-120 144h-24v-80h24zm120 0h-24v-80h24zm136 0h-24v-80h24zm120 0h-24v-80h24zm0-424h-16v-24h16zm-80 0v-24h16v24zm32-24h16v24h-16zm-48 0v24h-16v-24zm-1.34375 51.5625-7.70801-11.5625h98.10352l-7.708 11.5625a7.99836 7.99836 0 0 0 -1.34376 4.4375v8h-80v-8a7.99836 7.99836 0 0 0 -1.34375-4.4375zm-14.65625 28.4375h112v120h-32v-88a8 8 0 0 0 -16 0v88h-16v-88a8 8 0 0 0 -16 0v88h-32zm-16 120h-16v-24h16zm-72-74.23633 24.45435 34.23633h-48.9087zm-56 50.23633v24h-16v-24zm-32-152h-16v-24h16zm-80 0v-24h16v24zm32-24h16v24h-16zm-48 0v24h-16v-24zm-1.34375 51.5625-7.70801-11.5625h98.10352l-7.708 11.5625a7.99836 7.99836 0 0 0 -1.34376 4.4375v8h-80v-8a7.99836 7.99836 0 0 0 -1.34375-4.4375z"/></svg>