<svg id="Capa_1" enable-background="new 0 0 512 512" height="512" viewBox="0 0 512 512" width="512" xmlns="http://www.w3.org/2000/svg"><g><g><g><g><path d="m391.358 221.952c-14.49-23.685-22.493-50.763-22.493-78.529v-33.224h-57.659v33.224c0 27.766-8.003 54.844-22.493 78.529-19.811 32.382-31.236 70.452-31.236 111.195v146.353c0 13.807 11.193 25 25 25h115.117c13.807 0 25-11.193 25-25v-146.354c0-40.742-11.424-78.812-31.236-111.194z" fill="#2db181"/><path d="m391.356 221.95c-14.49-23.68-22.49-50.76-22.49-78.53v-33.221h-57.659v32.942l8.018.091c9.018.102 16.577 6.905 17.551 15.871 2.412 22.221 9.893 43.651 21.64 62.848 19.81 32.38 31.24 70.45 31.24 111.2v94.085h-132.178v36.418h116.331c8.752 0 15.847 7.095 15.847 15.847 0 13.81-11.2 25-25 25h32.94c13.807 0 25-11.193 25-25v-146.351c0-40.75-11.43-78.82-31.24-111.2z" fill="#1ca56f"/><path d="m257.476 333.15h165.12v109.42h-165.12z" fill="#fb4a59"/><path d="m278.896 333.15v.06c0 19.24 5.65 37.55 15.91 51.57 11.47 15.66 27.95 24.65 45.23 24.65s33.77-8.99 45.23-24.65c.016-.022.032-.043.047-.065 1.375-1.883 4.343-.949 4.343 1.382v56.472h32.94v-109.419z" fill="#f82f40"/><ellipse cx="340.036" cy="333.214" fill="#fbcc85" rx="41.143" ry="56.214"/><path d="m381.176 333.21c0 31.05-18.42 56.22-41.14 56.22-5.07 0-9.93-1.25-14.41-3.55 15.61-7.98 26.72-28.55 26.72-52.67 0-24.11-11.11-44.68-26.72-52.66 4.48-2.3 9.34-3.55 14.41-3.55 22.72 0 41.14 25.17 41.14 56.21z" fill="#e8b66b"/><g><path d="m374.866 17.5v92c0 2.761-2.239 5-5 5h-59.66c-2.761 0-5-2.239-5-5v-92c0-5.523 4.477-10 10-10h49.66c5.522 0 10 4.477 10 10z" fill="#fbcc85"/><path d="m374.866 17.5v92c0 2.761-2.239 5-5 5h-33.94v-97c0-5.52-4.48-10-10-10h38.94c5.522 0 10 4.477 10 10z" fill="#e8b66b"/></g></g><g><path d="m142.615 394.162c-32.726 0-57.694-29.262-52.545-61.58l9.13-57.298c.773-4.854 4.96-8.426 9.875-8.426h67.077c4.915 0 9.102 3.572 9.875 8.426l9.13 57.298c5.153 32.318-19.816 61.58-52.542 61.58z" fill="#b5dbfd"/><path d="m142.616 394.16c-5.98 0-11.71-.98-17.03-2.77 23.81-8.04 39.71-32.4 35.5-58.81l-9.13-57.3c-.77-4.85-4.96-8.42-9.88-8.42h34.08c4.91 0 9.1 3.57 9.87 8.42l9.13 57.3c5.15 32.32-19.81 61.58-52.54 61.58z" fill="#8dcafc"/><path d="m142.613 394.16c-32.72 0-57.69-29.26-52.54-61.58l4.59-28.82c5.14-1.9 10.7-2.94 16.5-2.94 12.06 0 23.07 4.49 31.45 11.89s19.39 11.89 31.45 11.89c6.83 0 13.32-1.44 19.19-4.03l1.91 12.01c5.15 32.32-19.82 61.58-52.55 61.58z" fill="#fb4a59"/><path d="m142.616 394.16c-5.98 0-11.7-.98-17.03-2.77 23.81-8.04 39.71-32.4 35.5-58.81l-1.64-10.27c4.61 1.49 9.52 2.29 14.62 2.29 6.83 0 13.32-1.44 19.19-4.03l1.91 12.01c5.15 32.32-19.82 61.58-52.55 61.58z" fill="#f82f40"/></g></g></g><g><path d="m430.094 333.179c0-.01.001-.019.001-.029 0-.012-.002-.023-.002-.034-.006-40.714-11.187-80.506-32.338-115.078-13.994-22.874-21.391-48.675-21.391-74.615v-23.266c3.591-2.199 6-6.147 6-10.657v-92c0-9.649-7.851-17.5-17.5-17.5h-49.66c-9.649 0-17.5 7.851-17.5 17.5v30.755c0 4.142 3.358 7.5 7.5 7.5s7.5-3.358 7.5-7.5v-30.755c0-1.378 1.122-2.5 2.5-2.5h49.66c1.378 0 2.5 1.122 2.5 2.5v89.5h-54.66v-26.084c0-4.142-3.358-7.5-7.5-7.5s-7.5 3.358-7.5 7.5v28.584c0 4.511 2.41 8.459 6.001 10.658v23.265c0 25.94-7.397 51.741-21.391 74.615-21.147 34.565-32.328 74.349-32.338 115.055 0 .019-.003.038-.003.058 0 .016.002.032.002.048v146.301c0 17.92 14.58 32.5 32.5 32.5h115.116c17.92 0 32.5-14.58 32.5-32.5v-146.321zm-165.116 7.471h26.753c1.211 13.804 5.77 26.645 13.161 36.744 9.22 12.598 21.701 19.535 35.145 19.535s25.925-6.938 35.145-19.535c7.391-10.099 11.95-22.939 13.161-36.744h26.753v94.42h-150.118zm30.133-114.784c15.437-25.231 23.596-53.739 23.596-82.443v-21.423h42.658v21.423c0 28.704 8.159 57.212 23.596 82.443 18.414 30.098 28.716 64.449 29.995 99.784h-26.627c-.548-6.107-1.75-12.053-3.619-17.748-1.292-3.937-5.532-6.081-9.465-4.787-3.936 1.292-6.079 5.529-4.787 9.465 2.137 6.511 3.221 13.454 3.221 20.634 0 26.861-15.092 48.714-33.643 48.714s-33.643-21.853-33.643-48.714 15.092-48.714 33.643-48.714c5.095 0 10.02 1.668 14.638 4.958 3.374 2.403 8.057 1.617 10.46-1.757s1.617-8.057-1.757-10.46c-7.109-5.064-15.18-7.742-23.341-7.742-13.443 0-25.925 6.938-35.145 19.535-7.368 10.067-11.921 22.859-13.149 36.615h-26.626c1.28-35.334 11.582-69.685 29.995-99.783zm102.483 271.134h-115.116c-9.649 0-17.5-7.851-17.5-17.5v-29.43h150.116v29.43c0 9.649-7.85 17.5-17.5 17.5z"/><path d="m193.436 274.104c-1.361-8.545-8.63-14.747-17.282-14.747h-21.681c-4.142 0-7.5 3.358-7.5 7.5s3.358 7.5 7.5 7.5h21.681c1.236 0 2.274.886 2.469 2.107l6.24 39.157c-3.492.976-7.104 1.479-10.799 1.479-9.769 0-19.174-3.556-26.486-10.012-10.054-8.878-22.986-13.768-36.415-13.768-2.461 0-4.904.161-7.318.482l2.763-17.338c.194-1.221 1.233-2.107 2.469-2.107h12.735c4.142 0 7.5-3.358 7.5-7.5s-3.358-7.5-7.5-7.5h-12.735c-8.652 0-15.921 6.202-17.282 14.747l-9.13 57.298c-2.8 17.575 2.219 35.419 13.77 48.958 9.913 11.617 23.718 18.966 38.681 20.822v95.818h-26.574c-4.142 0-7.5 3.358-7.5 7.5s3.358 7.5 7.5 7.5h68.148c4.142 0 7.5-3.358 7.5-7.5s-3.358-7.5-7.5-7.5h-26.574v-95.818c14.963-1.856 28.768-9.205 38.681-20.822 11.551-13.539 16.57-31.383 13.77-48.958zm-16.051 96.519c-8.697 10.193-21.371 16.039-34.77 16.039s-26.073-5.846-34.77-16.039c-8.698-10.193-12.477-23.628-10.368-36.861l3.859-24.221c3.195-.805 6.484-1.221 9.826-1.221 9.769 0 19.175 3.556 26.486 10.011 10.054 8.879 22.987 13.769 36.415 13.769 4.488 0 8.889-.547 13.17-1.6l.52 3.262c2.109 13.233-1.67 26.668-10.368 36.861z"/><path d="m302.058 405.462h-12.65c-4.142 0-7.5 3.358-7.5 7.5s3.358 7.5 7.5 7.5h12.65c4.142 0 7.5-3.358 7.5-7.5s-3.358-7.5-7.5-7.5z"/><path d="m390.665 405.462h-12.65c-4.142 0-7.5 3.358-7.5 7.5s3.358 7.5 7.5 7.5h12.65c4.142 0 7.5-3.358 7.5-7.5s-3.358-7.5-7.5-7.5z"/></g></g></svg>